<!DOCTYPE svg PUBLIC "-//W3C//DTD SVG 1.1//EN" "http://www.w3.org/Graphics/SVG/1.1/DTD/svg11.dtd">
<!-- Uploaded to: SVG Repo, www.svgrepo.com, Transformed by: SVG Repo Mixer Tools -->
<svg fill="#2B84EA" version="1.1" id="Capa_1" xmlns="http://www.w3.org/2000/svg" xmlns:xlink="http://www.w3.org/1999/xlink" width="64px" height="64px" viewBox="0 0 103.54 103.54" xml:space="preserve" transform="matrix(-1, 0, 0, -1, 0, 0)rotate(0)" stroke="#2B84EA" stroke-width="0.41414800000000007">
<g id="SVGRepo_bgCarrier" stroke-width="0"/>
<g id="SVGRepo_tracerCarrier" stroke-linecap="round" stroke-linejoin="round"/>
<g id="SVGRepo_iconCarrier"> <g> <g> <path d="M103.048,12.002c-1.445-3.771-5.679-5.649-9.438-4.207L4.692,41.9c-2.753,1.055-4.603,3.662-4.688,6.609 c-0.087,2.948,1.608,5.656,4.295,6.872l88.917,40.196c0.978,0.44,2,0.65,3.006,0.65c2.784,0,5.442-1.6,6.665-4.302 c1.661-3.678,0.029-8.007-3.648-9.671L26.273,49.277l72.568-27.834C102.61,19.998,104.496,15.771,103.048,12.002z"/> </g> </g> </g>
</svg>